<svg xmlns="http://www.w3.org/2000/svg" width="37" height="37" viewBox="0 0 37 37" fill="none">
<path d="M30.1334 27.6792C30.4592 28.005 30.6422 28.447 30.6422 28.9077C30.6422 29.3685 30.4592 29.8104 30.1334 30.1362C29.8076 30.4621 29.3656 30.6451 28.9049 30.6451C28.4441 30.6451 28.0022 30.4621 27.6763 30.1362L18.5001 20.9571L9.32088 30.1334C8.99506 30.4592 8.55315 30.6422 8.09236 30.6422C7.63158 30.6422 7.18967 30.4592 6.86385 30.1334C6.53803 29.8075 6.35498 29.3656 6.35498 28.9048C6.35498 28.4441 6.53803 28.0022 6.86385 27.6763L16.043 18.5L6.86674 9.32086C6.54092 8.99504 6.35787 8.55313 6.35787 8.09234C6.35787 7.63156 6.54092 7.18965 6.86674 6.86383C7.19256 6.53801 7.63447 6.35496 8.09525 6.35496C8.55604 6.35496 8.99795 6.53801 9.32377 6.86383L18.5001 16.043L27.6792 6.86238C28.0051 6.53656 28.447 6.35352 28.9078 6.35352C29.3685 6.35352 29.8104 6.53656 30.1363 6.86238C30.4621 7.18821 30.6451 7.63012 30.6451 8.0909C30.6451 8.55168 30.4621 8.99359 30.1363 9.31941L20.9571 18.5L30.1334 27.6792Z" fill="coral"/>
</svg>