<svg width="40" height="38" viewBox="0 0 40 38" fill="none" xmlns="http://www.w3.org/2000/svg">
<path d="M1.66681 15.5725C1.22474 15.5725 0.800783 15.4089 0.488196 15.1179C0.17561 14.8268 0 14.4321 0 14.0205V1.60765C0 1.19604 0.17561 0.801286 0.488196 0.510232C0.800783 0.219177 1.22474 0.0556641 1.66681 0.0556641H15.0013C15.4433 0.0556641 15.8673 0.219177 16.1799 0.510232C16.4924 0.801286 16.6681 1.19604 16.6681 1.60765V14.0205C16.6681 14.4321 16.4924 14.8268 16.1799 15.1179C15.8673 15.4089 15.4433 15.5725 15.0013 15.5725H1.66681ZM25.0021 15.5725C24.56 15.5725 24.1361 15.4089 23.8235 15.1179C23.5109 14.8268 23.3353 14.4321 23.3353 14.0205V1.60765C23.3353 1.19604 23.5109 0.801286 23.8235 0.510232C24.1361 0.219177 24.56 0.0556641 25.0021 0.0556641H38.3332C38.7753 0.0556641 39.1992 0.219177 39.5118 0.510232C39.8244 0.801286 40 1.19604 40 1.60765V14.0205C40 14.4321 39.8244 14.8268 39.5118 15.1179C39.1992 15.4089 38.7753 15.5725 38.3332 15.5725H25.0021ZM1.66681 37.3003C1.22474 37.3003 0.800783 37.1368 0.488196 36.8458C0.17561 36.5547 0 36.1599 0 35.7483V23.3324C0 22.9208 0.17561 22.526 0.488196 22.235C0.800783 21.9439 1.22474 21.7804 1.66681 21.7804H15.0013C15.4433 21.7804 15.8673 21.9439 16.1799 22.235C16.4924 22.526 16.6681 22.9208 16.6681 23.3324V35.7483C16.6681 36.1599 16.4924 36.5547 16.1799 36.8458C15.8673 37.1368 15.4433 37.3003 15.0013 37.3003H1.66681ZM25.0021 37.3003C24.56 37.3003 24.1361 37.1368 23.8235 36.8458C23.5109 36.5547 23.3353 36.1599 23.3353 35.7483V23.3324C23.3353 22.9208 23.5109 22.526 23.8235 22.235C24.1361 21.9439 24.56 21.7804 25.0021 21.7804H38.3332C38.7753 21.7804 39.1992 21.9439 39.5118 22.235C39.8244 22.526 40 22.9208 40 23.3324V35.7483C40 36.1599 39.8244 36.5547 39.5118 36.8458C39.1992 37.1368 38.7753 37.3003 38.3332 37.3003H25.0021Z" fill="white"/>
</svg>
