<svg width="51" height="30" viewBox="0 0 51 30" fill="none" xmlns="http://www.w3.org/2000/svg">
<g clip-path="url(#clip0_2021_7496)">
<g clip-path="url(#clip1_2021_7496)">
<g clip-path="url(#clip2_2021_7496)">
<path fill-rule="evenodd" clip-rule="evenodd" d="M20.09 29.196H16.74V0.73H21.924L25.392 24.212C24.874 18.631 24.196 9.62 24.196 4.876V0.73H27.545V29.196H22.8L19.61 6.39C19.89 11.493 20.089 17.593 20.089 21.022V29.195M29.459 29.196V0.73H34.203C37.353 0.73 39.306 2.444 39.306 6.431V10.617C39.306 13.209 38.508 14.524 37.392 15.202C38.508 15.92 39.306 17.195 39.306 19.388V23.534C39.306 27.441 37.233 29.196 34.203 29.196H29.459ZM33.286 4.318V13.727H33.764C35.12 13.727 35.479 13.209 35.479 11.654V6.232C35.479 4.916 35.08 4.318 33.924 4.318H33.286ZM33.286 16.837V25.607H33.924C35.12 25.607 35.479 24.93 35.479 23.574V18.75C35.479 17.355 35.039 16.837 33.764 16.837H33.286ZM46.478 23.853H44.086L43.766 29.196H39.9L42.69 0.73H48.112L50.824 29.196H46.797L46.478 23.853ZM44.245 20.624H46.279L45.959 15.401C45.84 13.328 45.521 6.75 45.282 3.201H45.122L44.564 15.401L44.245 20.624ZM10.105 0H3.098C2.27652 0.000529815 1.48884 0.327095 0.907968 0.907968C0.327095 1.48884 0.000529815 2.27652 0 3.098L0 26.826C0.000263815 27.6479 0.326617 28.4362 0.907432 29.0177C1.48825 29.5993 2.27607 29.9267 3.098 29.928H10.1C10.9227 29.9269 11.7114 29.5999 12.2933 29.0185C12.8753 28.437 13.2031 27.6487 13.205 26.826V3.098C13.2037 2.27642 12.8766 1.4889 12.2954 0.908138C11.7143 0.32738 10.9266 0.000793244 10.105 0Z" fill="#FFFFFE"/>
<path fill-rule="evenodd" clip-rule="evenodd" d="M8.36723 5.48598L8.37423 5.58798C8.58823 5.71198 8.69623 5.81398 8.91223 5.95198C9.48323 6.31198 10.1872 6.95198 10.0982 9.15498C10.2582 9.63498 10.3292 10.579 10.4782 10.882C10.7752 11.472 10.9742 11.856 11.0612 12.413C11.0612 12.413 11.1462 13.28 11.2582 13.343C11.8492 13.477 11.6782 13.535 11.7652 13.636C11.8572 13.755 12.1982 13.749 12.1982 14.067C12.3162 14.225 12.4042 14.39 12.4702 14.561V3.09798C12.4697 2.47063 12.2205 1.86908 11.7771 1.42519C11.3338 0.981309 10.7326 0.731304 10.1052 0.72998H7.84123C8.20523 0.85998 8.41123 1.01198 8.53023 1.25398C8.82223 1.27898 9.17023 1.93398 8.62823 2.90298C8.86823 3.06298 8.68123 3.30098 8.50923 3.57798C8.45923 3.66698 8.40423 3.82498 8.24323 3.81398C8.03823 4.24698 7.78923 4.66598 7.60223 4.69198C7.54523 4.76198 7.50423 4.94798 7.58923 5.03598C7.86523 5.15898 8.20123 5.32898 8.36723 5.48598ZM12.4702 16.114C12.3138 16.5071 12.0428 16.8442 11.6924 17.0814C11.342 17.3185 10.9284 17.4449 10.5052 17.444C10.2281 17.4441 9.95357 17.3896 9.69746 17.2837C9.44135 17.1777 9.20862 17.0223 9.01259 16.8263C8.81655 16.6304 8.66104 16.3977 8.55494 16.1417C8.44884 15.8856 8.39423 15.6112 8.39423 15.334C8.39423 14.339 9.07823 13.504 10.0072 13.281C9.76423 12.671 9.25023 11.684 9.09723 11.361C8.95323 11.039 8.60523 9.03098 8.53023 8.63398C8.51323 8.54698 7.61923 9.15298 7.61723 9.18998C7.56523 9.23998 6.94723 10.856 6.92123 10.943C6.90823 10.998 6.90723 11.213 6.90723 11.213C6.90723 11.213 7.21123 11.251 7.38623 11.782C7.55923 12.312 8.08623 14.245 8.08623 14.245C8.08623 14.245 7.94423 14.393 7.93823 14.385C8.60523 16.617 8.37223 17.578 8.67123 18.233C9.04723 19.155 9.14923 19.034 9.47123 19.81C9.70323 20.375 9.96123 22.598 10.0472 22.696C10.4072 23.153 10.6012 23.509 10.6012 23.766C10.6012 24.026 10.2962 24.791 10.4072 25.237C10.4752 25.5 10.5102 26.087 10.6322 26.199C10.6322 26.199 10.7442 26.42 10.6892 26.519C10.6732 26.552 10.6412 26.603 10.6562 26.644C10.8542 27.344 11.4962 28.54 10.4572 29.166H10.4792C11.0364 29.0792 11.5439 28.7953 11.9094 28.3658C12.2748 27.9363 12.4738 27.3899 12.4702 26.826V16.114Z" fill="#B52532"/>
<path fill-rule="evenodd" clip-rule="evenodd" d="M9.80398 26.371C9.42398 26.031 9.67798 25.888 9.66198 25.754C9.41198 24.717 8.58798 24.09 9.01398 23.748C8.90898 23.406 8.69498 22.976 8.70298 22.977C7.41998 22.24 6.32698 21.043 6.14198 20.867C5.91698 20.623 5.53298 20.377 5.46198 20.179C5.15298 19.896 3.64098 17.751 3.28898 16.961L2.67498 16.874C2.39498 15.734 1.46298 14.777 1.43998 13.634C1.43198 13.201 1.63598 12.275 1.71198 12.091C1.78698 11.903 2.14398 11.596 2.14398 11.596V11.29C0.804981 11.328 1.18998 11.191 0.959981 10.67C0.797981 10.31 0.913981 10.23 0.971981 9.98C1.15198 9.243 1.74898 8.105 1.99498 7.588C2.07098 7.327 2.32898 6.698 2.32898 6.698C3.32698 4.666 3.69998 4.815 4.88498 4.7L4.94298 4.616C6.13098 4.564 5.93598 4.475 6.10298 3.331C5.93098 3.405 5.87898 2.972 5.87898 2.972C5.78498 2.322 6.05898 2.445 6.18898 2.432C6.21798 1.362 6.32698 1.024 7.09898 0.729004H3.09898C2.78771 0.729004 2.47949 0.790346 2.19194 0.909524C1.90439 1.0287 1.64315 1.20338 1.42314 1.42357C1.20313 1.64377 1.02867 1.90516 0.909736 2.19281C0.790801 2.48046 0.729719 2.78873 0.729981 3.1V26.827C0.729981 28.136 1.78998 29.197 3.09998 29.197H10.105C9.30298 28.763 9.77698 27.937 9.80398 26.371Z" fill="#253B73"/>
</g>
</g>
</g>
<defs>
<clipPath id="clip0_2021_7496">
<rect width="51" height="30" fill="white"/>
</clipPath>
<clipPath id="clip1_2021_7496">
<rect width="51" height="30" fill="white"/>
</clipPath>
<clipPath id="clip2_2021_7496">
<rect width="51" height="30" fill="white"/>
</clipPath>
</defs>
</svg>
